<?xml version="1.0" standalone="no"?>
<!DOCTYPE svg PUBLIC "-//W3C//DTD SVG 20010904//EN"
 "http://www.w3.org/TR/2001/REC-SVG-20010904/DTD/svg10.dtd">
<svg version="1.0" xmlns="http://www.w3.org/2000/svg"
 width="1500.000000pt" height="1500.000000pt" viewBox="0 0 1500.000000 1500.000000"
 preserveAspectRatio="xMidYMid meet">

<g transform="translate(0.000000,1500.000000) scale(0.100000,-0.100000)"
fill="#000000" stroke="none">
<path d="M2630 9954 c-112 -29 -239 -113 -292 -192 l-16 -24 -71 18 c-337 81
-640 -193 -591 -536 6 -39 21 -126 35 -194 44 -219 26 -342 -63 -434 -84 -86
-274 -182 -362 -182 -41 0 -107 29 -132 56 -9 11 -22 33 -28 49 l-12 30 -14
-35 c-27 -62 -38 -160 -24 -209 22 -80 95 -131 190 -131 57 0 209 28 305 55
273 79 446 236 501 455 24 93 14 178 -32 287 -78 187 -87 216 -87 283 -1 137
89 237 241 269 29 6 55 11 58 11 2 0 -8 -24 -23 -52 -25 -48 -28 -63 -28 -153
0 -88 3 -107 27 -158 54 -116 178 -209 325 -243 95 -23 352 -11 285 13 -32 12
-73 58 -82 94 -28 105 39 186 234 282 157 78 205 122 232 213 22 75 14 138
-27 214 -41 77 -102 133 -192 176 -116 55 -243 68 -357 38z"/>
<path d="M3921 3444 c-62 -18 -116 -35 -118 -38 -2 -2 14 -63 37 -135 40 -130
43 -151 14 -151 -8 0 -14 -6 -14 -12 0 -16 68 -240 75 -246 9 -9 105 17 395
107 315 97 301 89 255 162 -72 113 -195 144 -368 93 -49 -14 -90 -24 -92 -22
-1 1 -13 63 -26 137 -13 74 -28 135 -34 137 -5 1 -61 -13 -124 -32z"/>
<path d="M2153 3312 l-103 -15 0 -88 c0 -88 0 -89 -25 -89 l-25 0 0 -130 0
-130 355 0 355 0 0 28 c0 39 -42 122 -81 159 -60 57 -110 73 -231 73 -59 0
-109 4 -112 8 -2 4 1 51 8 105 l12 97 -25 -1 c-14 -1 -72 -8 -128 -17z"/>
</g>
</svg>
