<?xml version="1.0" standalone="no"?>
<!DOCTYPE svg PUBLIC "-//W3C//DTD SVG 20010904//EN"
 "http://www.w3.org/TR/2001/REC-SVG-20010904/DTD/svg10.dtd">
<svg version="1.0" xmlns="http://www.w3.org/2000/svg"
 width="1536.000000pt" height="1316.000000pt" viewBox="0 0 1536.000000 1316.000000"
 preserveAspectRatio="xMidYMid meet">

<g transform="translate(0.000000,1316.000000) scale(0.100000,-0.100000)"
fill="#000000" stroke="none">
<path d="M6745 10353 c-316 -41 -614 -196 -844 -440 -212 -224 -359 -517 -422
-843 -21 -107 -23 -149 -27 -602 l-4 -488 111 0 111 0 -6 43 c-3 23 -11 91
-19 152 -7 60 -12 111 -10 113 10 10 27 -48 42 -142 17 -105 17 -106 44 -106
30 0 59 -23 59 -46 0 -12 44 -14 279 -14 l279 0 29 45 c31 50 38 54 46 25 5
-19 14 -20 161 -20 95 0 156 4 156 10 0 5 -23 41 -51 79 -62 85 -179 281 -179
299 0 7 -11 32 -24 55 -32 56 -89 222 -112 327 -20 92 -27 390 -11 483 l8 47
95 0 94 0 -5 73 -6 72 35 -72 35 -73 475 0 475 0 11 58 c6 31 15 71 19 87 8
29 9 28 16 -20 4 -27 10 -66 14 -85 l7 -35 77 -3 77 -3 1 73 1 73 38 -80 c118
-244 101 -545 -45 -782 -59 -95 -188 -224 -275 -276 -36 -20 -96 -49 -135 -64
-38 -15 -72 -28 -74 -30 -5 -4 -50 -222 -51 -245 0 -17 18 -18 245 -18 189 0
245 3 245 13 0 6 -9 82 -20 167 -10 85 -17 156 -15 158 1 2 40 -74 86 -167
l82 -171 155 0 154 0 -5 578 c-5 621 -6 637 -63 836 -81 285 -271 563 -502
734 -147 109 -324 185 -506 217 -81 14 -272 18 -351 8z"/>
<path d="M8327 7023 c-9 -60 -32 -207 -52 -328 -34 -212 -35 -224 -25 -333 13
-128 8 -218 -21 -374 -33 -179 -118 -399 -214 -554 l-44 -71 143 -429 143
-429 6 135 c9 201 27 687 37 1005 5 154 16 465 25 690 23 603 29 795 23 795
-2 0 -12 -48 -21 -107z"/>
<path d="M7666 3468 c-2 -7 -9 -74 -15 -148 -7 -74 -18 -207 -26 -295 -8 -88
-26 -290 -40 -450 -29 -326 -52 -589 -61 -682 -4 -50 -3 -63 9 -63 12 0 881
223 914 235 16 6 -20 90 -157 370 -169 343 -314 599 -505 891 -94 144 -112
165 -119 142z"/>
<path d="M8710 1327 c0 -14 6 -70 14 -124 16 -113 31 -231 50 -423 37 -354 39
-370 53 -370 27 0 50 37 56 91 11 87 -56 453 -134 734 -33 118 -39 133 -39 92z"/>
<path d="M7476 1239 c-3 -19 -17 -167 -31 -329 -38 -435 -53 -611 -66 -748 -7
-67 -9 -126 -5 -129 6 -6 237 17 335 34 32 5 33 7 28 42 -6 37 -38 190 -77
361 -11 52 -26 118 -31 145 -18 85 -27 127 -49 225 -11 52 -25 115 -30 140 -5
25 -17 77 -25 115 -9 39 -20 92 -25 119 -13 62 -17 67 -24 25z"/>
</g>
</svg>
