<?xml version="1.0" standalone="no"?>
<!DOCTYPE svg PUBLIC "-//W3C//DTD SVG 20010904//EN"
 "http://www.w3.org/TR/2001/REC-SVG-20010904/DTD/svg10.dtd">
<svg version="1.0" xmlns="http://www.w3.org/2000/svg"
 width="2048.000000pt" height="1074.000000pt" viewBox="0 0 2048.000000 1074.000000"
 preserveAspectRatio="xMidYMid meet">

<g transform="translate(0.000000,1074.000000) scale(0.100000,-0.100000)"
fill="#000000" stroke="none">
<path d="M8357 6521 c-15 -18 -34 -48 -44 -68 -9 -20 -29 -43 -44 -52 -25 -14
-28 -23 -35 -89 -3 -40 -5 -75 -3 -77 7 -7 80 23 101 42 12 10 34 38 50 62 23
38 28 55 28 111 0 39 -5 74 -13 84 -13 17 -15 16 -40 -13z"/>
<path d="M7980 6386 c0 -28 27 -71 65 -104 33 -30 80 -50 90 -40 3 3 8 32 11
65 l7 60 -64 12 c-35 7 -74 15 -86 18 -17 4 -23 1 -23 -11z"/>
<path d="M8109 6013 c-8 -10 -27 -37 -42 -60 -48 -75 -107 -91 -246 -69 -52 9
-96 14 -98 12 -9 -8 21 -64 50 -95 89 -93 233 -95 319 -4 25 26 28 38 34 131
4 56 5 102 2 102 -3 0 -11 -8 -19 -17z"/>
<path d="M8662 5629 c-83 -120 -124 -144 -228 -137 -75 5 -74 2 26 -72 88 -65
114 -66 179 -5 57 53 87 130 76 193 -11 66 -20 69 -53 21z"/>
<path d="M15810 5044 c-18 -54 -7 -114 30 -171 34 -53 100 -103 133 -103 19 0
19 5 13 72 -6 65 -10 75 -36 96 -17 13 -38 38 -46 55 -17 34 -63 87 -75 87 -4
0 -13 -16 -19 -36z"/>
<path d="M8715 5009 c-59 -80 -130 -113 -246 -114 l-87 0 18 -26 c21 -29 99
-74 147 -84 57 -12 108 10 146 63 56 77 68 108 65 164 l-3 51 -40 -54z"/>
<path d="M1200 4959 c-24 -108 27 -207 131 -254 21 -10 41 -16 44 -13 3 2 2
39 -1 81 -6 61 -10 76 -25 80 -10 3 -30 24 -46 47 -15 23 -42 58 -59 78 l-32
36 -12 -55z"/>
<path d="M16135 4916 l-60 -12 3 -64 c2 -36 5 -66 7 -69 18 -17 128 68 144
113 20 52 16 53 -94 32z"/>
<path d="M1545 4848 c-22 -5 -50 -11 -62 -14 -20 -4 -23 -11 -23 -52 0 -26 3
-57 6 -69 l6 -22 37 18 c36 19 74 56 104 101 34 49 17 59 -68 38z"/>
<path d="M16095 4463 c8 -124 17 -140 100 -179 65 -31 118 -30 181 1 60 30 88
57 109 109 l16 38 -38 -6 c-21 -3 -76 -9 -123 -12 -114 -9 -153 10 -205 96
-20 33 -39 60 -42 60 -3 0 -2 -48 2 -107z"/>
<path d="M1477 4388 l5 -103 38 -36 c61 -56 153 -75 224 -45 45 19 111 79 126
116 7 17 11 33 9 35 -3 2 -48 -3 -101 -11 -89 -14 -102 -14 -153 1 -53 15 -59
20 -98 80 -22 36 -44 65 -48 65 -4 0 -5 -46 -2 -102z"/>
<path d="M15510 4161 c-21 -81 13 -171 88 -228 24 -18 54 -33 68 -33 14 0 57
25 104 61 44 34 80 63 80 64 0 2 -33 3 -72 2 -97 0 -146 25 -192 96 -19 29
-41 59 -49 66 -14 11 -17 7 -27 -28z"/>
<path d="M890 4086 c-25 -90 43 -216 137 -255 30 -12 34 -11 90 30 32 23 72
54 88 68 l31 27 -76 -1 c-96 0 -144 24 -189 93 -17 27 -40 57 -50 66 -17 16
-19 15 -31 -28z"/>
<path d="M12600 3634 c-13 -33 -13 -106 0 -140 24 -63 84 -119 148 -138 21 -7
22 -5 22 63 0 66 -2 71 -30 91 -17 12 -40 40 -51 63 -23 45 -57 87 -71 87 -5
0 -13 -12 -18 -26z"/>
<path d="M15456 3563 c-9 -40 7 -86 54 -159 44 -67 72 -84 140 -84 21 0 54 7
73 15 37 15 107 71 107 85 0 4 -42 10 -92 12 -115 5 -177 33 -226 102 -42 58
-49 62 -56 29z"/>
<path d="M845 3487 c-12 -46 23 -129 90 -212 25 -31 130 -34 190 -4 26 13 59
37 73 54 l25 30 -99 5 c-123 7 -180 31 -224 95 -39 56 -48 61 -55 32z"/>
<path d="M12915 3497 l-61 -10 4 -66 c3 -36 6 -68 7 -69 2 -2 23 5 47 16 51
23 81 54 103 105 l15 37 -27 -2 c-16 0 -55 -6 -88 -11z"/>
<path d="M8410 3283 c-33 -14 -100 -88 -115 -128 -14 -36 -20 -41 -40 -37 -36
6 -95 -17 -107 -43 -23 -51 60 -125 140 -125 18 0 32 -4 32 -10 0 -5 19 -24
42 -41 34 -24 49 -29 75 -24 26 5 34 2 43 -15 8 -15 8 -25 1 -34 -18 -21 60
-115 97 -116 21 0 82 -73 82 -98 0 -39 30 -90 65 -112 42 -26 108 -26 151 0
38 24 70 94 61 137 -3 15 -1 53 5 84 14 67 -1 132 -37 171 -12 13 -30 50 -39
82 -20 68 -72 126 -131 144 -34 10 -44 20 -64 63 -34 73 -83 103 -175 106 -39
1 -78 0 -86 -4z"/>
<path d="M14285 3254 c-27 -9 -84 -19 -125 -23 -87 -8 -139 -30 -177 -76 -104
-124 -127 -166 -138 -251 -9 -62 15 -163 51 -217 27 -40 106 -97 136 -97 24 0
23 -12 -6 -39 -24 -23 -46 -87 -46 -136 0 -20 -8 -29 -35 -41 -43 -18 -44 -28
-5 -51 17 -9 30 -24 30 -31 0 -10 6 -12 23 -7 12 4 39 10 60 12 l38 5 -22 24
c-21 23 -22 27 -10 67 7 23 21 79 31 125 21 94 48 133 119 173 25 14 70 41 99
59 l52 33 34 -18 c33 -18 36 -18 75 0 83 37 151 144 151 237 0 172 -174 302
-335 252z m-137 -352 c56 4 75 2 79 -8 3 -8 23 -19 44 -24 43 -12 47 -23 22
-60 -47 -68 -130 -91 -204 -56 -46 21 -89 89 -89 137 l0 38 37 -16 c27 -11 58
-14 111 -11z"/>
<path d="M12878 3048 l4 -103 36 -38 c44 -46 95 -61 180 -54 51 4 71 11 100
34 41 34 67 68 77 102 7 22 5 23 -31 17 -187 -29 -253 -17 -301 54 -15 23 -37
53 -48 66 l-20 25 3 -103z"/>
<path d="M12296 2758 c-23 -86 16 -200 81 -241 65 -41 79 -42 131 -8 26 17 66
48 90 69 l43 37 -90 0 c-106 0 -123 9 -189 103 -24 34 -47 62 -52 62 -4 0 -10
-10 -14 -22z"/>
<path d="M7760 2544 c0 -16 33 -64 53 -77 13 -8 36 -41 50 -72 25 -51 50 -76
63 -62 9 9 -129 206 -148 210 -10 3 -18 3 -18 1z"/>
<path d="M18790 2204 c-41 -123 61 -271 195 -282 94 -8 191 54 224 142 l11 28
-42 -6 c-24 -3 -81 -8 -128 -12 -78 -6 -88 -4 -119 17 -19 13 -49 48 -66 78
-43 73 -60 81 -75 35z"/>
<path d="M14042 2190 c-18 -17 -20 -24 -11 -50 20 -56 30 -49 45 33 7 42 -2
46 -34 17z"/>
<path d="M12240 2131 c0 -53 18 -96 69 -164 34 -46 46 -55 81 -61 48 -7 103 0
142 20 25 13 88 73 88 84 0 3 -42 5 -93 6 -119 0 -168 21 -227 95 -23 30 -46
56 -51 57 -5 2 -9 -15 -9 -37z"/>
<path d="M14059 2028 c-6 -24 -18 -61 -25 -83 -11 -34 -34 -237 -34 -303 0
-27 21 -34 125 -41 l90 -6 16 -95 c9 -52 31 -151 49 -220 28 -109 32 -141 31
-246 0 -67 5 -137 11 -155 6 -19 14 -137 18 -264 5 -126 12 -248 16 -269 l7
-39 -21 21 c-12 12 -28 22 -35 22 -7 0 -35 -25 -62 -56 -26 -31 -79 -76 -116
-100 -105 -67 -88 -91 51 -73 131 16 223 45 278 87 l23 18 -21 57 c-12 31 -27
57 -34 57 -18 0 -26 95 -26 296 0 129 -4 175 -20 238 -16 60 -19 94 -14 149 6
71 0 105 -83 499 -5 27 -5 27 31 16 26 -8 67 -8 152 0 64 6 119 14 122 17 13
13 5 237 -12 327 l-19 97 -61 15 c-159 42 -189 46 -207 30 -9 -8 -31 -19 -48
-24 -28 -8 -33 -6 -40 12 -6 17 -93 58 -123 58 -4 0 -12 -19 -19 -42z"/>
<path d="M7140 1738 c-27 -109 -65 -155 -177 -213 -46 -24 -59 -36 -61 -57 -4
-36 14 -40 133 -27 55 6 151 13 214 14 70 2 116 7 121 14 7 12 -18 121 -41
179 -8 17 -21 35 -31 38 -10 3 -23 14 -28 25 -6 11 -21 19 -35 19 -13 0 -32
11 -43 25 -28 35 -40 31 -52 -17z"/>
<path d="M6746 1726 c-48 -55 -127 -86 -241 -95 l-80 -6 0 -30 c0 -36 27 -52
158 -89 48 -14 94 -32 102 -40 8 -7 44 -19 81 -26 80 -15 85 -12 103 81 11 53
10 63 -4 79 -9 10 -19 38 -22 61 -6 41 -38 109 -51 109 -4 0 -24 -20 -46 -44z"/>
<path d="M19043 1725 c-4 -11 -8 -47 -8 -81 0 -79 38 -145 109 -189 82 -50
190 -39 264 29 26 23 66 95 58 103 -3 3 -34 0 -69 -6 -155 -27 -232 -8 -276
67 -14 25 -36 57 -48 71 -21 25 -22 25 -30 6z"/>
<path d="M18486 1344 c-8 -21 -8 -103 1 -145 8 -40 77 -112 129 -134 100 -41
228 8 281 109 l15 28 -74 -8 c-159 -19 -226 2 -280 88 -44 68 -63 85 -72 62z"/>
<path d="M18395 744 c-18 -97 31 -189 124 -236 89 -45 169 -33 249 36 l46 41
-95 6 c-129 8 -181 31 -239 108 -62 82 -76 89 -85 45z"/>
<path d="M14604 322 c-6 -4 -14 -25 -18 -47 -4 -22 -16 -54 -26 -70 -10 -17
-23 -43 -29 -58 -10 -26 -9 -29 24 -43 19 -7 61 -14 94 -14 75 0 87 15 77 99
-10 86 -16 99 -51 121 -34 21 -53 24 -71 12z"/>
</g>
</svg>
