<?xml version="1.0" standalone="no"?>
<!DOCTYPE svg PUBLIC "-//W3C//DTD SVG 20010904//EN"
 "http://www.w3.org/TR/2001/REC-SVG-20010904/DTD/svg10.dtd">
<svg version="1.0" xmlns="http://www.w3.org/2000/svg"
 width="1500.000000pt" height="1051.000000pt" viewBox="0 0 1500.000000 1051.000000"
 preserveAspectRatio="xMidYMid meet">

<g transform="translate(0.000000,1051.000000) scale(0.100000,-0.100000)"
fill="#000000" stroke="none">
<path d="M10968 9230 c-142 -17 -275 -82 -350 -173 -55 -67 -85 -77 -225 -77
-211 0 -325 -42 -459 -171 -45 -44 -84 -79 -86 -80 -2 0 -55 -4 -118 -8 -181
-12 -250 -55 -318 -200 -31 -64 -36 -86 -36 -146 -1 -123 46 -193 214 -320
108 -82 175 -151 196 -200 24 -58 17 -149 -17 -245 -70 -193 -87 -288 -69
-408 16 -113 44 -185 132 -336 78 -133 127 -235 128 -265 0 -10 11 -12 43 -8
131 18 159 19 167 7 12 -20 110 307 110 367 0 12 -24 36 -62 63 -87 61 -133
105 -198 186 -156 195 -231 458 -201 702 23 187 108 382 221 505 l56 60 54
-58 c30 -32 98 -90 151 -131 205 -155 227 -228 144 -467 -55 -158 -69 -251
-55 -362 16 -132 37 -184 151 -375 92 -154 111 -210 117 -337 5 -121 -7 -190
-78 -428 -60 -202 -80 -307 -80 -425 0 -300 149 -626 370 -808 140 -115 140
-115 140 -158 0 -22 -18 -104 -40 -184 -64 -233 -52 -324 60 -444 67 -71 138
-110 238 -132 200 -42 396 18 752 231 203 121 274 209 273 340 -1 39 -10 106
-22 150 -59 230 -50 440 34 790 46 192 93 334 190 575 103 254 132 347 147
465 21 168 -14 282 -160 507 -90 139 -116 188 -144 268 -42 121 -49 185 -58
550 -9 358 -16 428 -55 545 -77 229 -286 405 -616 520 -269 93 -487 132 -641
115z"/>
<path d="M13380 5741 c-30 -59 -88 -267 -112 -401 -27 -153 -29 -406 -4 -534
25 -131 62 -238 122 -357 64 -129 90 -203 115 -331 71 -368 30 -835 -112
-1261 -49 -147 -62 -208 -35 -157 27 48 85 230 120 372 60 241 79 400 79 658
1 335 -27 475 -143 720 -118 248 -146 385 -137 665 6 196 32 339 97 536 22 67
38 124 36 127 -3 2 -14 -15 -26 -37z"/>
<path d="M4736 3554 c-98 -30 -168 -93 -213 -189 l-28 -60 0 -1005 0 -1005 33
-67 c36 -73 87 -124 161 -160 l46 -23 2111 -3 c2019 -2 2113 -1 2134 16 15 12
24 33 27 65 7 57 -10 100 -43 116 -17 8 -166 11 -491 11 l-465 0 8 23 c5 12
10 465 11 1007 3 966 3 986 -17 1052 -25 84 -95 164 -178 205 l-57 28 -1495 2
c-1307 2 -1501 0 -1544 -13z m1360 -1130 c19 -9 41 -29 49 -45 32 -61 10 -135
-49 -163 -42 -20 -59 -20 -100 -1 -86 41 -87 167 -2 209 40 20 60 20 102 0z"/>
<path d="M14370 3297 c-163 -71 -273 -167 -333 -289 -42 -85 -62 -193 -53
-279 26 -230 -169 -507 -462 -653 -68 -35 -96 -56 -72 -56 15 0 104 46 170 88
185 117 314 274 364 441 10 35 16 92 16 161 0 137 12 198 55 285 41 85 109
159 202 218 62 40 186 97 212 97 5 0 13 5 16 10 12 20 -42 9 -115 -23z"/>
<path d="M10120 3025 c0 -5 127 -215 165 -273 15 -23 31 -39 36 -37 4 3 -16
43 -45 88 -29 45 -72 115 -95 155 -24 39 -47 72 -52 72 -5 0 -9 -2 -9 -5z"/>
<path d="M11924 2500 c-34 -5 -119 -24 -190 -44 -239 -65 -428 -89 -669 -84
l-160 3 -85 -49 c-166 -97 -362 -235 -545 -385 -236 -192 -587 -509 -579 -522
3 -5 60 41 127 103 408 374 833 702 1028 792 41 20 55 21 145 14 205 -17 456
11 714 80 l175 46 215 0 c177 0 238 -4 344 -22 256 -44 561 -128 839 -229 82
-30 152 -52 155 -48 17 17 -26 43 -144 88 -271 102 -651 204 -904 242 -127 19
-382 27 -466 15z"/>
<path d="M9116 2208 c5 -8 40 -51 78 -96 l69 -82 52 0 c29 0 67 3 85 7 31 6
29 8 -67 53 -55 26 -128 66 -163 90 -34 23 -58 36 -54 28z"/>
</g>
</svg>
