<?xml version="1.0" standalone="no"?>
<!DOCTYPE svg PUBLIC "-//W3C//DTD SVG 20010904//EN"
 "http://www.w3.org/TR/2001/REC-SVG-20010904/DTD/svg10.dtd">
<svg version="1.0" xmlns="http://www.w3.org/2000/svg"
 width="1024.000000pt" height="793.000000pt" viewBox="0 0 1024.000000 793.000000"
 preserveAspectRatio="xMidYMid meet">

<g transform="translate(0.000000,793.000000) scale(0.100000,-0.100000)"
fill="#000000" stroke="none">
<path d="M4310 6284 c-201 -7 -669 -22 -1040 -33 -1031 -32 -1029 -32 -1046
-48 -12 -12 -14 -134 -14 -837 0 -740 2 -825 16 -837 13 -11 87 -11 422 -1
224 7 473 16 555 19 l147 6 0 -200 0 -200 -42 -7 c-48 -8 -78 -30 -78 -59 0
-18 6 -19 118 -13 64 3 198 8 297 11 342 10 365 15 315 65 -15 15 -33 20 -69
20 l-50 0 -6 43 c-3 23 -5 112 -3 197 l3 155 195 7 c107 3 359 11 560 17 352
11 366 12 383 32 16 20 17 74 17 824 0 498 -4 813 -10 829 l-10 26 -147 -1
c-82 -1 -312 -8 -513 -15z m-694 -115 c3 -6 -1 -18 -9 -27 -13 -12 -19 -13
-31 -3 -8 7 -12 19 -9 27 6 17 39 19 49 3z m1314 -759 l0 -700 -21 0 c-12 0
-292 -9 -623 -20 -971 -32 -1515 -49 -1773 -56 l-243 -7 0 700 0 700 258 7
c141 4 448 13 682 21 234 8 592 19 795 25 204 7 458 15 565 19 107 4 232 9
278 9 l82 2 0 -700z"/>
<path d="M8524 5780 c-38 -15 -293 -170 -301 -183 -4 -6 -8 -39 -8 -73 0 -57
-2 -62 -37 -93 -47 -41 -52 -69 -29 -159 l19 -73 -30 -35 -31 -35 28 -77 c29
-79 35 -124 21 -154 -7 -15 -3 -18 22 -18 59 0 99 -86 117 -248 7 -62 15 -115
18 -118 8 -8 64 23 70 39 3 8 3 32 0 54 -4 32 -1 43 13 54 19 14 23 51 28 243
l1 48 -52 20 c-141 52 -216 218 -165 363 16 45 22 50 58 58 39 8 40 8 94 -52
31 -33 71 -87 89 -118 67 -115 82 -133 136 -173 63 -47 73 -71 56 -142 -26
-114 -14 -145 89 -237 112 -100 119 -131 66 -299 -44 -139 -47 -156 -30 -212
21 -70 106 -140 171 -140 15 0 44 -5 63 -10 43 -12 64 -57 54 -117 -7 -46 24
-123 60 -147 39 -25 105 -38 161 -31 l52 7 -33 55 c-78 130 -54 266 80 462 83
121 81 136 -33 248 -72 72 -92 99 -110 148 -23 60 -23 80 -5 193 7 44 7 44
-64 115 -111 114 -121 149 -77 277 14 40 25 84 25 97 0 56 -45 106 -155 173
-83 51 -136 99 -177 160 -41 60 -87 109 -120 126 -30 15 -101 18 -134 4z"/>
<path d="M1455 4973 c-50 -6 -386 -42 -634 -68 -128 -13 -236 -27 -240 -30 -3
-4 23 -180 59 -391 61 -369 65 -385 85 -380 11 4 47 9 80 12 73 7 774 151 796
164 9 5 33 12 53 15 20 4 36 12 36 17 0 6 -20 157 -45 335 -25 178 -45 326
-45 328 0 5 -97 4 -145 -2z m140 -315 c21 -150 39 -280 39 -288 1 -10 -18 -18
-64 -27 -36 -6 -198 -39 -360 -73 -388 -81 -442 -91 -447 -86 -7 7 -104 609
-101 625 3 13 79 25 423 67 231 29 431 52 445 53 l26 1 39 -272z"/>
<path d="M5345 4410 l-110 -5 -3 -37 c-3 -38 -3 -38 35 -38 l38 0 13 -76 c6
-41 14 -79 17 -85 4 -5 69 -9 145 -9 158 0 152 -3 164 85 11 79 14 85 47 85
29 0 30 2 27 38 l-3 37 -130 5 c-71 3 -179 3 -240 0z"/>
<path d="M1530 4239 c-69 -16 -134 -31 -145 -33 -11 -3 -54 -12 -95 -22 -41
-9 -102 -22 -134 -28 -33 -7 -62 -18 -64 -25 -3 -10 -6 -10 -12 -1 -7 11 -44
5 -110 -17 -8 -3 -24 -7 -35 -8 -79 -12 -105 -19 -105 -30 0 -12 68 -109 114
-162 19 -22 55 -30 69 -16 4 3 19 8 33 9 15 2 49 10 78 18 28 8 85 23 126 32
41 9 143 34 225 55 83 22 158 41 168 44 9 2 45 12 80 21 34 9 77 19 95 21 32
5 41 16 22 28 -5 3 -19 1 -31 -5 -16 -9 -24 -9 -32 -1 -9 9 -6 13 11 17 12 4
22 9 21 13 0 6 -137 114 -149 118 -3 0 -61 -12 -130 -28z m190 -127 c0 -15
-48 -33 -56 -21 -4 6 0 15 7 20 18 11 49 12 49 1z m-329 -19 c13 -16 12 -17
-3 -4 -17 13 -22 21 -14 21 2 0 10 -8 17 -17z m122 -4 c4 -16 3 -18 -9 -8 -7
6 -11 15 -8 20 8 13 11 11 17 -12z m-62 -16 c13 -16 12 -17 -3 -4 -10 7 -18
15 -18 17 0 8 8 3 21 -13z m-244 -45 c-7 -4 -7 -11 2 -22 8 -9 9 -16 5 -16 -5
0 -15 9 -22 20 -8 13 -9 20 -1 20 6 0 8 9 4 23 -7 22 -7 22 8 2 11 -14 12 -22
4 -27z m187 26 c5 -14 4 -15 -9 -4 -17 14 -19 20 -6 20 5 0 12 -7 15 -16z
m-249 -15 c11 -17 -1 -21 -15 -4 -8 9 -8 15 -2 15 6 0 14 -5 17 -11z m-65 -19
c6 -11 8 -20 6 -20 -3 0 -10 9 -16 20 -6 11 -8 20 -6 20 3 0 10 -9 16 -20z
m191 3 c13 -16 12 -17 -3 -4 -10 7 -18 15 -18 17 0 8 8 3 21 -13z m-121 -44
c0 -18 -18 -9 -23 12 -4 16 -3 18 9 8 8 -6 14 -15 14 -20z"/>
<path d="M5880 4220 c-25 -15 -2 -25 74 -28 67 -4 72 -3 72 17 0 19 -6 21 -66
21 -36 0 -72 -4 -80 -10z"/>
<path d="M1190 1465 c0 -14 4 -25 9 -25 4 0 6 11 3 25 -2 14 -6 25 -8 25 -2 0
-4 -11 -4 -25z"/>
<path d="M1545 1410 c-3 -6 1 -7 9 -4 18 7 21 14 7 14 -6 0 -13 -4 -16 -10z"/>
<path d="M1190 1330 c0 -5 5 -10 10 -10 6 0 10 5 10 10 0 6 -4 10 -10 10 -5 0
-10 -4 -10 -10z"/>
<path d="M1596 1321 c-4 -5 -2 -12 3 -15 5 -4 12 -2 15 3 4 5 2 12 -3 15 -5 4
-12 2 -15 -3z"/>
<path d="M1240 1300 c0 -5 5 -10 10 -10 6 0 10 5 10 10 0 6 -4 10 -10 10 -5 0
-10 -4 -10 -10z"/>
<path d="M1560 1269 c0 -5 5 -7 10 -4 6 3 10 8 10 11 0 2 -4 4 -10 4 -5 0 -10
-5 -10 -11z"/>
<path d="M1190 1260 c0 -5 5 -10 10 -10 6 0 10 5 10 10 0 6 -4 10 -10 10 -5 0
-10 -4 -10 -10z"/>
<path d="M1260 1214 c0 -8 5 -12 10 -9 6 4 8 11 5 16 -9 14 -15 11 -15 -7z"/>
<path d="M1566 1211 c-4 -5 -2 -12 3 -15 5 -4 12 -2 15 3 4 5 2 12 -3 15 -5 4
-12 2 -15 -3z"/>
<path d="M1510 1160 c0 -5 5 -10 10 -10 6 0 10 5 10 10 0 6 -4 10 -10 10 -5 0
-10 -4 -10 -10z"/>
<path d="M1330 1060 c0 -5 5 -10 10 -10 6 0 10 5 10 10 0 6 -4 10 -10 10 -5 0
-10 -4 -10 -10z"/>
<path d="M1420 1060 c0 -5 5 -10 10 -10 6 0 10 5 10 10 0 6 -4 10 -10 10 -5 0
-10 -4 -10 -10z"/>
<path d="M1360 990 c0 -5 5 -10 10 -10 6 0 10 5 10 10 0 6 -4 10 -10 10 -5 0
-10 -4 -10 -10z"/>
<path d="M1270 980 c0 -5 5 -10 10 -10 6 0 10 5 10 10 0 6 -4 10 -10 10 -5 0
-10 -4 -10 -10z"/>
<path d="M1380 930 c0 -5 5 -10 10 -10 6 0 10 5 10 10 0 6 -4 10 -10 10 -5 0
-10 -4 -10 -10z"/>
<path d="M1300 910 c0 -5 5 -10 11 -10 5 0 7 5 4 10 -3 6 -8 10 -11 10 -2 0
-4 -4 -4 -10z"/>
</g>
</svg>
