<?xml version="1.0" standalone="no"?>
<!DOCTYPE svg PUBLIC "-//W3C//DTD SVG 20010904//EN"
 "http://www.w3.org/TR/2001/REC-SVG-20010904/DTD/svg10.dtd">
<svg version="1.0" xmlns="http://www.w3.org/2000/svg"
 width="1536.000000pt" height="1142.000000pt" viewBox="0 0 1536.000000 1142.000000"
 preserveAspectRatio="xMidYMid meet">

<g transform="translate(0.000000,1142.000000) scale(0.100000,-0.100000)"
fill="#000000" stroke="none">
<path d="M2472 8729 c-18 -6 -75 -32 -126 -60 -77 -41 -119 -55 -247 -84 -317
-72 -359 -121 -411 -480 -20 -136 -16 -700 6 -945 62 -701 62 -935 -4 -1130
-12 -36 -32 -84 -46 -107 -13 -23 -24 -45 -24 -49 0 -10 446 5 510 18 136 26
189 84 260 285 l32 92 28 -14 c51 -26 174 -55 235 -55 84 0 158 37 186 92 25
48 21 58 -6 17 -52 -78 -195 -96 -352 -45 l-82 26 6 53 c3 35 -4 92 -21 176
-54 258 -28 330 188 516 179 154 221 207 262 324 40 116 48 235 29 433 -26
265 -10 361 81 481 68 90 84 130 84 212 0 83 -19 129 -69 162 -44 30 -77 39
-249 68 -151 26 -215 29 -270 14z"/>
<path d="M4711 8343 c-23 -15 -48 -23 -78 -23 -44 0 -44 0 -29 -22 9 -12 16
-32 16 -44 0 -12 -39 -75 -87 -140 -68 -94 -87 -128 -90 -159 -6 -68 -54 -226
-90 -300 -45 -90 -96 -150 -158 -184 -59 -32 -68 -49 -102 -184 -13 -55 -32
-115 -40 -132 -55 -107 -151 -174 -376 -260 -190 -73 -188 -72 -477 -253 -235
-148 -266 -171 -286 -219 -20 -45 -17 -53 5 -18 26 43 33 48 286 208 267 168
296 183 465 247 140 53 208 85 259 124 l35 26 29 -27 c19 -19 37 -27 55 -25
87 9 201 42 296 84 97 44 139 57 279 90 20 5 37 13 37 17 0 5 -32 64 -70 131
-39 67 -68 125 -65 130 2 4 53 35 113 69 l108 62 17 70 c16 66 16 72 -3 151
-27 111 -35 282 -21 457 6 79 10 145 9 146 -2 1 -18 -9 -37 -22z"/>
<path d="M3166 7359 c-32 -5 -61 -10 -62 -12 -6 -6 37 -141 51 -160 12 -17 19
-15 106 32 52 27 119 57 150 65 33 10 67 28 83 45 l27 28 -23 7 c-33 8 -262 5
-332 -5z"/>
<path d="M3748 5363 c-18 -21 -68 -107 -68 -117 0 -4 20 16 45 44 25 28 45 60
45 70 0 24 -3 25 -22 3z"/>
<path d="M3938 5120 c-31 -24 -51 -69 -46 -106 3 -28 4 -28 24 16 12 25 31 54
43 64 21 19 29 46 12 46 -4 0 -20 -9 -33 -20z"/>
<path d="M2555 1419 c-16 -5 -73 -14 -125 -20 -117 -13 -177 -39 -196 -85 -18
-44 -18 -146 1 -264 13 -77 20 -99 40 -115 28 -24 40 -66 55 -200 6 -55 20
-155 31 -223 27 -175 52 -217 148 -253 77 -29 218 -28 374 1 101 19 120 26
138 48 41 53 6 117 -107 193 l-74 50 0 59 c0 33 -4 60 -8 60 -5 0 -32 -7 -61
-16 -60 -17 -121 -68 -157 -130 -28 -48 -47 -59 -75 -44 -27 15 -33 53 -20
129 15 87 28 234 36 401 10 226 21 298 50 340 29 42 32 65 9 74 -19 7 -20 7
-59 -5z"/>
<path d="M4987 836 c-3 -8 -11 -60 -18 -117 -19 -170 -1 -262 59 -293 15 -8
64 -24 109 -36 64 -18 90 -21 115 -13 46 13 187 -26 298 -83 118 -61 391 -154
454 -154 27 0 77 -5 111 -11 82 -16 131 -5 172 36 39 39 40 54 12 113 -38 77
-123 159 -213 204 -45 22 -123 71 -175 109 -54 40 -103 69 -117 69 -63 0 -85
-87 -39 -150 28 -38 32 -62 11 -79 -11 -9 -36 -7 -108 8 -250 51 -482 185
-599 344 -50 68 -63 78 -72 53z"/>
</g>
</svg>
