<?xml version="1.0" standalone="no"?>
<!DOCTYPE svg PUBLIC "-//W3C//DTD SVG 20010904//EN"
 "http://www.w3.org/TR/2001/REC-SVG-20010904/DTD/svg10.dtd">
<svg version="1.0" xmlns="http://www.w3.org/2000/svg"
 width="462.000000pt" height="424.000000pt" viewBox="0 0 462.000000 424.000000"
 preserveAspectRatio="xMidYMid meet">

<g transform="translate(0.000000,424.000000) scale(0.100000,-0.100000)"
fill="#000000" stroke="none">
<path d="M2700 3985 c0 -5 9 -34 20 -63 24 -64 8 -67 -27 -6 -28 49 -30 22 -3
-46 11 -28 20 -53 20 -56 0 -3 -21 -3 -47 1 l-48 6 43 -22 c38 -19 73 -61 61
-73 -2 -3 -23 0 -46 7 -33 8 -45 8 -58 -3 -8 -7 -14 -18 -12 -24 2 -6 -3 -16
-11 -22 -10 -8 -13 -17 -7 -30 5 -10 9 -21 9 -24 8 -38 69 -40 154 -5 107 43
134 30 145 -73 4 -29 13 -62 22 -74 l15 -22 0 27 c0 35 28 48 46 22 19 -26 17
-42 -6 -65 -13 -13 -22 -40 -26 -75 -6 -49 -4 -56 17 -74 13 -11 27 -20 30
-21 4 0 33 34 65 76 l58 75 -32 25 c-43 34 -112 152 -112 191 0 24 -9 38 -46
68 -57 47 -89 98 -99 155 -4 24 -14 60 -21 80 l-14 35 5 -37 c4 -22 2 -38 -4
-38 -5 0 -15 17 -21 38 -13 39 -30 65 -30 44 0 -6 7 -30 16 -52 23 -56 9 -63
-15 -9 -23 50 -41 79 -41 64z"/>
<path d="M830 3700 c-19 -10 -47 -21 -63 -25 -41 -8 -105 -71 -118 -116 l-12
-38 -25 19 c-30 24 -65 26 -86 4 -19 -19 -20 -36 -4 -52 9 -9 9 -12 -1 -12 -8
0 -11 -10 -9 -27 2 -22 9 -29 31 -31 16 -2 39 4 52 12 33 22 36 20 29 -11 -4
-16 -32 -54 -63 -86 l-56 -58 3 -82 c2 -77 0 -85 -28 -131 -37 -57 -41 -106
-13 -144 32 -43 55 -35 77 27 11 30 34 68 52 86 33 34 117 79 167 91 l28 6 -3
-95 c-2 -79 0 -99 13 -113 16 -15 21 -15 70 1 66 22 63 19 48 43 -11 17 -10
33 0 85 12 59 11 69 -7 109 -10 24 -36 66 -56 92 -41 55 -44 72 -16 123 25 46
25 50 0 104 -19 44 -27 105 -12 95 4 -2 14 -1 22 4 10 6 21 4 32 -7 16 -14 45
-19 73 -13 22 5 36 -1 29 -11 -5 -9 3 -10 28 -5 42 8 44 4 54 -126 7 -95 -7
-140 -51 -160 -25 -11 -32 -38 -19 -71 6 -17 33 -12 136 25 l58 21 -22 29
c-17 24 -20 39 -15 79 6 47 4 52 -28 88 -41 45 -65 106 -58 144 8 40 -15 86
-60 118 -49 36 -122 39 -177 9z"/>
<path d="M1434 3709 c-29 -15 -54 -61 -54 -103 0 -25 -6 -38 -20 -46 -43 -23
-9 -90 45 -90 25 0 52 -56 59 -125 8 -74 34 -151 60 -182 24 -27 25 -27 81
-16 60 13 155 73 155 99 0 8 -16 24 -35 35 -39 23 -51 49 -35 79 11 21 54 28
65 10 12 -19 35 11 35 44 0 30 2 32 33 28 40 -4 97 32 110 71 12 36 -11 72
-59 92 -19 8 -47 24 -61 35 -34 27 -78 25 -133 -4 -53 -28 -94 -20 -104 20
-12 48 -91 77 -142 53z m126 -172 c0 -2 -10 -12 -22 -23 l-23 -19 19 23 c18
21 26 27 26 19z"/>
<path d="M3545 3705 c-99 -35 -143 -139 -152 -357 l-6 -136 41 -21 c43 -22 72
-27 72 -13 0 5 6 16 13 26 11 15 17 16 40 5 15 -7 27 -19 27 -28 0 -14 2 -14
10 -1 10 16 110 42 110 28 0 -22 -30 -78 -42 -78 -8 0 -9 -3 -3 -8 6 -4 11
-28 12 -55 3 -82 73 -164 73 -85 0 17 15 62 32 100 30 63 35 68 57 63 37 -9
79 -43 96 -75 8 -16 28 -86 43 -155 16 -69 32 -126 38 -127 20 -2 48 66 48
117 0 67 -22 104 -115 200 -119 123 -133 168 -103 335 18 102 12 146 -26 198
-53 74 -165 102 -265 67z"/>
<path d="M2675 3570 c-4 -6 5 -10 20 -10 15 0 24 4 20 10 -3 6 -12 10 -20 10
-8 0 -17 -4 -20 -10z"/>
<path d="M2790 3570 c0 -5 15 -10 33 -10 24 0 28 3 17 10 -20 13 -50 13 -50 0z"/>
<path d="M860 3520 c-12 -8 -11 -10 7 -10 12 0 25 5 28 10 8 13 -15 13 -35 0z"/>
<path d="M995 3510 c-3 -6 1 -7 10 -4 9 4 15 3 13 -2 -2 -5 0 -10 5 -11 16 -6
19 -2 7 12 -14 17 -26 19 -35 5z"/>
<path d="M2678 3513 c6 -2 18 -2 25 0 6 3 1 5 -13 5 -14 0 -19 -2 -12 -5z"/>
<path d="M2798 3513 c6 -2 18 -2 25 0 6 3 1 5 -13 5 -14 0 -19 -2 -12 -5z"/>
<path d="M2721 3479 c-6 -18 -11 -37 -10 -43 0 -6 7 7 15 28 8 22 12 41 10 43
-2 2 -9 -10 -15 -28z"/>
<path d="M884 3475 c8 -8 17 -15 20 -15 3 0 6 7 6 15 0 9 -9 15 -21 15 -18 0
-19 -2 -5 -15z"/>
<path d="M981 3440 c14 -31 19 -36 19 -24 0 6 -7 19 -16 30 -14 18 -14 18 -3
-6z"/>
<path d="M2760 3395 c-8 -9 -8 -15 -2 -15 12 0 26 19 19 26 -2 2 -10 -2 -17
-11z"/>
<path d="M930 3370 c0 -5 5 -10 11 -10 5 0 7 5 4 10 -3 6 -8 10 -11 10 -2 0
-4 -4 -4 -10z"/>
<path d="M1714 3335 c-8 -19 4 -35 24 -34 15 1 15 2 0 6 -21 5 -23 14 -6 31 9
9 9 12 0 12 -7 0 -15 -7 -18 -15z"/>
<path d="M3552 3161 c-8 -23 -15 -29 -29 -25 -15 5 -16 4 -3 -5 8 -6 18 -11
22 -11 7 0 30 61 24 67 -2 2 -8 -10 -14 -26z"/>
<path d="M3604 3140 c1 -16 7 -25 19 -26 11 -1 12 0 3 3 -8 2 -17 14 -19 26
-3 18 -4 18 -3 -3z"/>
<path d="M3930 3166 c0 -2 8 -10 18 -17 15 -13 16 -12 3 4 -13 16 -21 21 -21
13z"/>
<path d="M1233 3048 c-11 -13 -24 -30 -28 -38 -8 -16 -6 -14 34 33 14 15 22
27 19 27 -2 0 -14 -10 -25 -22z"/>
<path d="M3541 3004 c0 -11 3 -14 6 -6 3 7 2 16 -1 19 -3 4 -6 -2 -5 -13z"/>
<path d="M3332 2981 c-6 -17 -9 -31 -6 -31 7 0 25 52 20 57 -2 2 -8 -10 -14
-26z"/>
<path d="M2532 2960 c0 -14 2 -19 5 -12 2 6 2 18 0 25 -3 6 -5 1 -5 -13z"/>
<path d="M3532 2955 c0 -16 2 -22 5 -12 2 9 2 23 0 30 -3 6 -5 -1 -5 -18z"/>
<path d="M2523 2880 c0 -30 2 -43 4 -27 2 15 2 39 0 55 -2 15 -4 2 -4 -28z"/>
<path d="M3073 2880 c0 -30 2 -43 4 -27 2 15 2 39 0 55 -2 15 -4 2 -4 -28z"/>
<path d="M3312 2890 c0 -14 2 -19 5 -12 2 6 2 18 0 25 -3 6 -5 1 -5 -13z"/>
<path d="M1362 2880 c0 -14 2 -19 5 -12 2 6 2 18 0 25 -3 6 -5 1 -5 -13z"/>
<path d="M3522 2860 c0 -14 2 -19 5 -12 2 6 2 18 0 25 -3 6 -5 1 -5 -13z"/>
<path d="M640 2846 c0 -14 52 -167 56 -164 4 5 -45 168 -51 168 -3 0 -5 -2 -5
-4z"/>
<path d="M1372 2830 c0 -14 2 -19 5 -12 2 6 2 18 0 25 -3 6 -5 1 -5 -13z"/>
<path d="M2513 2755 c0 -38 2 -53 4 -32 2 20 2 52 0 70 -2 17 -4 1 -4 -38z"/>
<path d="M3083 2785 c0 -22 2 -30 4 -17 2 12 2 30 0 40 -3 9 -5 -1 -4 -23z"/>
<path d="M3513 2785 c0 -22 2 -30 4 -17 2 12 2 30 0 40 -3 9 -5 -1 -4 -23z"/>
<path d="M1382 2790 c-1 -8 5 -42 12 -75 8 -33 14 -49 14 -35 0 28 -25 133
-26 110z"/>
<path d="M3762 2775 c-24 -61 -25 -83 -5 -88 17 -4 17 -5 -1 -6 -20 -1 -18
-24 6 -86 l12 -29 7 24 c4 14 8 41 8 60 1 27 4 32 12 20 12 -17 5 25 -15 95
l-12 39 -12 -29z"/>
<path d="M3502 2690 c0 -19 2 -27 5 -17 2 9 2 25 0 35 -3 9 -5 1 -5 -18z"/>
<path d="M1765 2569 c-4 -6 -5 -12 -2 -15 2 -3 7 2 10 11 7 17 1 20 -8 4z"/>
<path d="M3951 2554 c-40 -13 -75 -25 -77 -27 -3 -2 41 -123 97 -268 72 -188
101 -276 101 -307 0 -49 14 -47 24 3 3 19 10 35 14 35 4 0 26 -22 49 -50 49
-58 73 -67 36 -13 -41 61 -28 73 20 18 51 -56 60 -49 15 11 -41 54 -37 65 8
21 51 -50 63 -47 17 4 -40 44 -40 67 0 29 14 -13 28 -21 31 -18 3 4 -21 28
-54 55 l-59 48 -73 240 c-40 132 -73 240 -74 241 -1 0 -34 -10 -75 -22z"/>
<path d="M1724 2509 c-37 -40 -84 -60 -159 -69 l-60 -7 51 -2 c80 -2 167 38
194 89 15 28 8 25 -26 -11z"/>
<path d="M3768 2493 c5 -21 7 -23 10 -9 2 10 0 22 -6 28 -6 6 -7 0 -4 -19z"/>
<path d="M1442 2490 c0 -14 2 -19 5 -12 2 6 2 18 0 25 -3 6 -5 1 -5 -13z"/>
<path d="M676 2421 c-44 -70 -104 -194 -110 -231 -4 -19 -36 -186 -71 -370
-157 -823 -235 -1250 -235 -1288 0 -50 9 -56 159 -101 121 -36 132 -37 154
-13 11 11 65 244 154 660 75 353 138 640 140 639 1 -2 -16 -290 -38 -641 -37
-589 -39 -639 -25 -662 10 -15 26 -24 42 -24 13 0 27 -7 30 -15 5 -12 24 -15
85 -15 73 0 96 -9 67 -26 -7 -4 -8 -3 -4 4 5 8 -1 12 -16 12 -22 -1 -22 -1 -4
-15 21 -16 47 -20 45 -7 -7 41 3 61 31 67 61 13 54 -45 115 1035 13 239 27
512 30 605 6 168 6 171 -22 255 -16 47 -37 99 -47 116 -19 32 -19 32 -127 38
-60 3 -158 9 -218 12 l-109 6 -26 -41z"/>
<path d="M3327 2443 c-20 -32 -77 -279 -77 -332 0 -63 42 -491 106 -1081 19
-178 33 -330 32 -338 -2 -8 -61 322 -132 734 -70 412 -130 752 -133 757 -2 4
-143 7 -314 7 l-309 0 0 -29 c0 -30 88 -1784 92 -1851 2 -28 8 -36 26 -38 13
-2 22 -10 22 -22 0 -12 -23 -29 -75 -56 -42 -20 -78 -40 -80 -43 -4 -7 268 -3
303 5 20 4 22 10 22 59 0 42 3 55 15 55 13 0 15 25 15 168 0 145 -14 1029 -23
1406 -1 70 1 120 5 110 4 -11 82 -368 173 -794 92 -426 173 -806 182 -844 l15
-68 40 6 c62 10 44 -12 -50 -63 -45 -24 -81 -45 -80 -46 2 -1 73 4 158 11 85
7 160 13 167 13 8 1 10 19 8 58 -2 32 -2 47 1 34 6 -23 6 -23 107 -17 149 10
167 14 167 39 0 12 -32 388 -70 836 -39 448 -69 822 -68 830 2 9 83 -362 181
-824 98 -462 181 -849 184 -859 5 -18 13 -19 136 -12 72 3 133 8 135 11 2 2
-64 413 -148 912 -85 499 -155 920 -158 936 -2 15 -8 27 -13 27 -5 0 -34 16
-64 37 -31 20 -58 33 -61 30 -7 -6 55 -67 68 -67 5 0 8 -4 8 -10 0 -18 -24
-10 -80 25 -30 19 -58 35 -63 35 -5 0 -8 -15 -6 -32 3 -49 0 -68 -11 -68 -5 0
-10 12 -10 28 0 42 -21 74 -136 202 -85 96 -112 120 -133 120 -14 0 -36 3 -47
6 -12 3 -24 2 -27 -3z m70 -1805 c-3 -8 -6 -5 -6 6 -1 11 2 17 5 13 3 -3 4
-12 1 -19z m-7 -399 c0 -5 -7 -9 -15 -9 -15 0 -20 12 -9 23 8 8 24 -1 24 -14z
m-630 -4 c0 -8 -4 -15 -10 -15 -5 0 -10 7 -10 15 0 8 5 15 10 15 6 0 10 -7 10
-15z"/>
<path d="M3682 2393 c24 -34 52 -57 92 -76 32 -16 59 -27 61 -25 1 2 -12 36
-31 76 l-33 72 -61 0 -62 0 34 -47z"/>
<path d="M3830 2250 c14 -10 27 -17 29 -15 8 8 -22 35 -38 35 -12 0 -10 -5 9
-20z"/>
<path d="M1371 2208 c-54 -135 -94 -311 -105 -460 l-6 -78 46 0 c25 0 62 -9
84 -20 35 -18 41 -18 74 -5 40 17 84 19 106 5 10 -6 3 -8 -23 -3 -24 4 -53 0
-82 -11 -44 -17 -46 -17 -79 3 -37 23 -126 30 -126 9 0 -6 -5 -75 -11 -152
-10 -130 -10 -141 7 -153 32 -23 94 -15 168 22 49 24 82 35 110 34 l41 -1 -50
-9 c-27 -4 -77 -22 -109 -38 -61 -32 -121 -40 -156 -21 -22 12 -25 0 -35 -137
l-5 -83 46 0 c25 0 74 -7 108 -16 33 -9 86 -20 116 -24 49 -7 51 -7 15 -9 -22
0 -74 8 -115 19 -41 11 -96 20 -122 20 l-46 0 -6 -57 c-6 -61 -14 -171 -21
-288 -3 -38 -10 -137 -16 -218 -6 -81 -9 -150 -7 -153 7 -6 206 -32 283 -36
l60 -3 22 320 c13 176 22 341 21 368 -2 26 -1 47 3 47 3 0 15 156 28 348 12
191 25 358 28 372 3 16 30 -87 74 -285 38 -170 71 -323 73 -338 10 -55 47
-222 53 -237 6 -15 8 -26 11 -63 2 -15 5 -16 23 -7 11 7 23 9 26 7 2 -3 -5 -8
-16 -12 -12 -3 -21 -15 -21 -25 0 -42 53 -246 67 -256 9 -8 10 -13 3 -16 -8
-2 -4 -38 15 -118 15 -63 29 -117 31 -119 2 -2 22 4 45 13 29 12 44 14 49 6 4
-7 25 -4 65 10 69 24 66 23 63 8 -4 -16 31 -23 46 -8 8 9 4 10 -19 6 -16 -4
-24 -3 -17 0 6 3 9 11 5 17 -4 7 0 8 12 4 14 -6 16 -3 12 12 -2 11 1 22 8 25
10 3 10 21 -2 88 -19 116 -16 112 -60 85 -68 -42 -148 -56 -213 -38 -15 4 5 7
50 7 76 0 164 27 190 59 8 10 5 48 -11 139 -21 120 -23 126 -43 119 -12 -4
-39 -7 -61 -6 -176 6 -187 7 -159 15 16 4 63 3 104 -3 82 -12 130 -2 130 26 0
22 -62 379 -66 384 -2 3 -14 -5 -27 -17 -29 -28 -89 -52 -124 -51 -20 0 -14 4
22 13 59 15 84 27 109 55 18 19 17 24 -9 178 -14 87 -28 164 -30 170 -3 9 -19
3 -52 -17 -60 -38 -133 -60 -192 -59 -88 2 -92 14 -4 14 74 0 97 4 143 26 30
14 65 35 78 45 l22 19 -45 260 c-25 143 -47 269 -50 281 -4 20 -15 21 -222 32
-120 7 -239 12 -264 12 l-47 0 -21 -52z m486 -54 c-4 -4 -28 -15 -54 -24 -27
-10 -75 -28 -108 -40 -65 -25 -222 -39 -262 -23 -14 5 19 8 90 8 80 0 123 5
152 17 48 19 178 67 184 68 2 0 1 -3 -2 -6z m46 -11 c-7 -2 -19 -2 -25 0 -7 3
-2 5 12 5 14 0 19 -2 13 -5z m-341 -210 c60 -21 105 -39 100 -41 -5 -1 -47 12
-93 29 -52 19 -115 34 -164 39 l-80 7 64 2 c49 1 87 -7 173 -36z m363 7 c-3
-5 -12 -10 -18 -10 -7 0 -6 4 3 10 19 12 23 12 15 0z m-80 -35 c-16 -8 -39
-14 -50 -14 -11 0 -2 6 20 14 52 17 68 17 30 0z m-92 -22 c-13 -2 -35 -2 -50
0 -16 2 -5 4 22 4 28 0 40 -2 28 -4z m238 -313 c-42 -36 -111 -60 -165 -59
-34 1 -29 3 31 14 49 9 85 22 115 43 54 39 63 40 19 2z m-231 -50 c0 -5 -10
-10 -22 -9 -22 0 -22 1 -3 9 11 5 21 9 23 9 1 1 2 -3 2 -9z m128 -297 c-10 -2
-26 -2 -35 0 -10 3 -2 5 17 5 19 0 27 -2 18 -5z m-58 -7 c0 -2 -11 -6 -25 -8
-13 -3 -22 -1 -19 3 5 9 44 13 44 5z m214 -231 c-27 -19 -60 -42 -72 -52 -14
-10 -47 -18 -80 -19 l-57 -3 57 8 c45 7 70 18 119 55 35 25 67 46 72 46 5 0
-13 -16 -39 -35z m-584 -221 c-110 -21 -191 -32 -184 -25 8 8 182 39 224 39
20 0 3 -6 -40 -14z m-217 -21 c-7 -2 -19 -2 -25 0 -7 3 -2 5 12 5 14 0 19 -2
13 -5z m55 -40 c-15 -2 -42 -2 -60 0 -18 2 -6 4 27 4 33 0 48 -2 33 -4z m79
-14 c15 -6 51 -17 78 -24 28 -8 41 -14 29 -14 -21 -1 -167 47 -147 48 6 1 24
-4 40 -10z"/>
<path d="M3790 2236 c0 -2 23 -20 51 -40 35 -26 47 -31 40 -18 -13 24 -91 73
-91 58z"/>
<path d="M305 391 c-10 -17 4 -31 30 -31 13 0 26 8 30 18 5 13 4 14 -6 5 -10
-10 -16 -10 -30 3 -11 10 -19 12 -24 5z m20 -11 c3 -5 1 -10 -4 -10 -6 0 -11
5 -11 10 0 6 2 10 4 10 3 0 8 -4 11 -10z"/>
<path d="M318 343 c7 -3 16 -2 19 1 4 3 -2 6 -13 5 -11 0 -14 -3 -6 -6z"/>
<path d="M2215 320 c-3 -6 1 -7 9 -4 18 7 21 14 7 14 -6 0 -13 -4 -16 -10z"/>
<path d="M1322 275 c0 -16 2 -22 5 -12 2 9 2 23 0 30 -3 6 -5 -1 -5 -18z"/>
<path d="M1018 283 c7 -3 16 -2 19 1 4 3 -2 6 -13 5 -11 0 -14 -3 -6 -6z"/>
<path d="M2285 269 c-4 -6 -5 -12 -2 -15 2 -3 7 2 10 11 7 17 1 20 -8 4z"/>
<path d="M2331 264 c0 -11 3 -14 6 -6 3 7 2 16 -1 19 -3 4 -6 -2 -5 -13z"/>
<path d="M1259 239 l-24 -20 30 17 c39 24 40 24 28 24 -6 0 -21 -9 -34 -21z"/>
<path d="M1356 250 c12 -5 29 -19 38 -32 9 -12 16 -18 16 -12 0 17 -40 54 -58
53 -13 0 -12 -2 4 -9z"/>
<path d="M1030 240 c-9 -6 -10 -10 -3 -10 6 0 15 5 18 10 8 12 4 12 -15 0z"/>
<path d="M285 220 c10 -11 20 -20 23 -20 3 0 -3 9 -13 20 -10 11 -20 20 -23
20 -3 0 3 -9 13 -20z"/>
<path d="M1312 215 c0 -16 2 -22 5 -12 2 9 2 23 0 30 -3 6 -5 -1 -5 -18z"/>
<path d="M240 196 c0 -2 7 -7 16 -10 8 -3 12 -2 9 4 -6 10 -25 14 -25 6z"/>
<path d="M4149 149 l-24 -20 28 17 c15 9 27 18 27 20 0 8 -8 4 -31 -17z"/>
<path d="M220 156 c0 -2 7 -7 16 -10 8 -3 12 -2 9 4 -6 10 -25 14 -25 6z"/>
<path d="M1298 153 c12 -2 32 -2 45 0 12 2 2 4 -23 4 -25 0 -35 -2 -22 -4z"/>
<path d="M4195 80 c-3 -6 1 -7 9 -4 18 7 21 14 7 14 -6 0 -13 -4 -16 -10z"/>
</g>
</svg>
