<?xml version="1.0" standalone="no"?>
<!DOCTYPE svg PUBLIC "-//W3C//DTD SVG 20010904//EN"
 "http://www.w3.org/TR/2001/REC-SVG-20010904/DTD/svg10.dtd">
<svg version="1.0" xmlns="http://www.w3.org/2000/svg"
 width="1500.000000pt" height="1500.000000pt" viewBox="0 0 1500.000000 1500.000000"
 preserveAspectRatio="xMidYMid meet">

<g transform="translate(0.000000,1500.000000) scale(0.100000,-0.100000)"
fill="#000000" stroke="none">
<path d="M3393 12159 c-63 -24 -128 -85 -156 -147 -28 -61 -30 -191 -5 -238
l17 -31 -53 -37 c-67 -46 -160 -143 -214 -223 -61 -90 -323 -623 -361 -734
-45 -130 -54 -266 -22 -333 13 -25 37 -58 54 -72 36 -31 118 -71 164 -80 l30
-6 43 136 c24 75 45 134 47 132 2 -2 12 -52 23 -112 11 -60 23 -119 25 -131 5
-21 7 -21 145 25 131 44 141 49 167 86 23 35 79 184 71 191 -2 2 -32 17 -67
35 -157 78 -261 233 -277 411 l-7 67 109 6 c60 4 120 8 134 9 20 2 30 15 62
87 l38 85 0 -89 c0 -76 2 -87 16 -82 9 3 39 6 67 6 l52 0 35 135 c18 74 36
132 39 130 2 -3 14 -67 25 -142 l21 -138 213 3 212 3 0 -64 c0 -125 -70 -274
-166 -354 l-44 -37 0 -77 c0 -118 56 -250 126 -296 48 -31 215 6 269 60 l32
32 6 235 c4 129 7 287 7 351 0 192 -40 365 -112 487 -45 76 -147 182 -218 229
l-60 38 6 61 c18 178 -112 324 -288 324 -155 0 -265 -95 -293 -252 -11 -67
-13 -70 -21 -43 -5 17 -9 57 -8 90 1 126 87 237 214 276 22 7 21 7 -10 8 -19
0 -58 -9 -87 -20z"/>
<path d="M2090 3561 c-72 -144 -138 -247 -177 -277 -98 -74 -199 -230 -210
-323 -5 -41 -2 -51 20 -77 l25 -29 129 0 c186 1 240 16 473 134 l195 99 3 192
2 192 -51 46 c-28 26 -76 64 -106 85 -55 37 -55 37 -159 37 l-104 0 -40 -79z"/>
<path d="M4756 3431 c-10 -11 -23 -40 -29 -65 -11 -43 -19 -51 -92 -99 l-80
-52 -16 -130 c-9 -72 -18 -154 -20 -184 l-4 -54 166 -71 c91 -39 177 -81 192
-93 36 -28 151 -76 258 -106 163 -47 260 -45 310 9 20 22 24 35 23 89 0 50 -7
77 -33 129 -34 70 -124 170 -201 223 -25 17 -70 59 -100 94 -77 90 -238 256
-280 289 -50 39 -73 44 -94 21z"/>
</g>
</svg>
